<?xml version="1.0" standalone="no"?>
<!DOCTYPE svg PUBLIC "-//W3C//DTD SVG 20010904//EN"
 "http://www.w3.org/TR/2001/REC-SVG-20010904/DTD/svg10.dtd">
<svg version="1.0" xmlns="http://www.w3.org/2000/svg"
 width="512.000000pt" height="512.000000pt" viewBox="0 0 512.000000 512.000000"
 preserveAspectRatio="xMidYMid meet">
<metadata>
Created by potrace 1.14, written by Peter Selinger 2001-2017
</metadata>
<g transform="translate(0.000000,512.000000) scale(0.100000,-0.100000)"
fill="#000000" stroke="none">
<path d="M1699 5111 c-8 -6 -52 -56 -96 -113 -157 -201 -323 -465 -323 -515 0
-61 73 -95 117 -55 11 9 48 64 83 122 62 104 208 318 241 353 16 18 19 17 59
-35 61 -76 187 -266 255 -383 53 -93 205 -396 205 -410 0 -3 11 -31 25 -61 41
-89 140 -376 176 -508 57 -210 107 -451 134 -641 13 -92 15 -113 20 -165 3
-30 7 -71 10 -90 24 -188 24 -771 0 -975 -2 -16 -6 -55 -10 -85 -10 -92 -15
-132 -25 -190 -5 -30 -11 -73 -15 -95 -3 -22 -12 -74 -20 -115 -8 -41 -17 -86
-20 -99 -43 -223 -201 -726 -264 -839 -7 -12 -60 36 -247 222 -162 162 -246
239 -265 243 -24 5 -36 -3 -91 -62 -97 -105 -245 -252 -338 -337 l-84 -77 -29
67 c-90 212 -222 666 -261 900 -3 15 -12 70 -21 122 -17 97 -19 111 -29 215
-4 33 -8 69 -11 80 -28 137 -28 853 1 1095 10 86 25 197 29 219 2 13 7 44 10
69 3 26 7 54 9 62 3 8 7 31 10 50 33 221 177 710 276 935 115 263 117 270 74
304 -56 44 -95 20 -145 -87 -168 -360 -325 -883 -374 -1242 -3 -25 -8 -56 -10
-70 -2 -14 -7 -45 -10 -70 -4 -25 -8 -56 -10 -70 -2 -14 -7 -61 -11 -105 -3
-44 -8 -88 -9 -97 -21 -112 -22 -793 -1 -904 2 -11 7 -54 11 -97 3 -43 8 -88
10 -100 2 -12 6 -44 10 -72 5 -43 33 -214 50 -310 50 -274 186 -718 290 -950
7 -16 21 -49 30 -73 18 -43 55 -72 92 -72 25 0 176 132 370 325 l162 160 113
-115 c99 -101 236 -231 348 -329 19 -17 50 -34 68 -37 56 -11 69 8 162 241
104 262 207 613 249 850 6 33 13 69 15 80 2 11 7 40 11 65 4 25 9 53 11 64 2
10 6 44 10 75 3 31 8 63 9 71 2 8 6 47 10 85 4 39 9 81 11 95 25 161 25 766
-1 1005 -21 185 -31 265 -40 315 -3 14 -7 41 -10 60 -5 32 -17 98 -31 175 -3
17 -19 86 -35 155 -17 69 -32 132 -34 140 -2 8 -20 71 -40 140 -153 522 -407
1020 -719 1411 -33 41 -60 75 -61 77 -7 9 -72 11 -86 3z"/>
<path d="M3182 4819 c-263 -59 -459 -172 -592 -340 -67 -85 -75 -142 -25 -175
41 -27 87 -12 115 38 90 160 293 278 582 337 89 19 123 81 71 132 -27 27 -59
28 -151 8z"/>
<path d="M1685 4665 l-25 -24 3 -1916 2 -1917 24 -19 c32 -26 73 -24 100 5
l23 25 0 1883 c-1 1036 -1 1897 -1 1914 -2 68 -78 98 -126 49z"/>
<path d="M3340 4457 c-3 -3 -33 -7 -66 -10 -162 -15 -408 -102 -565 -200 -24
-15 -46 -59 -41 -84 4 -27 47 -63 74 -63 11 0 50 18 86 39 187 109 415 169
623 165 134 -2 241 -23 363 -70 48 -19 94 -34 101 -34 7 0 24 9 39 21 34 27
36 79 4 109 -30 28 -157 75 -270 101 -83 18 -336 37 -348 26z"/>
<path d="M3289 4036 c-2 -2 -40 -6 -84 -10 -44 -3 -91 -8 -105 -11 -14 -3 -68
-12 -120 -21 -110 -19 -350 -87 -384 -109 -30 -20 -37 -56 -18 -95 22 -46 49
-47 185 -7 183 53 295 74 482 93 136 13 414 7 520 -11 60 -11 141 -25 166 -30
55 -10 241 -75 316 -110 365 -171 620 -469 689 -805 23 -113 23 -381 0 -419
-2 -3 -7 -22 -10 -41 -3 -19 -13 -62 -23 -94 l-18 -60 -29 75 c-146 371 -474
644 -862 714 -53 9 -126 13 -219 10 -121 -3 -158 -8 -253 -35 -124 -37 -253
-112 -350 -204 -258 -245 -353 -688 -236 -1101 42 -150 98 -257 239 -455 40
-57 91 -71 131 -37 43 37 35 70 -38 168 -122 162 -203 355 -225 539 -11 83 -7
242 7 318 75 407 337 643 730 658 375 13 720 -196 894 -545 41 -81 86 -207 99
-278 6 -29 3 -35 -23 -48 -78 -40 -190 -8 -236 69 -22 38 -20 70 6 103 24 30
26 85 5 107 -26 26 -53 28 -122 11 -79 -20 -186 -22 -239 -5 -85 27 -134 85
-158 189 -25 107 -64 125 -159 72 -129 -72 -247 -73 -329 -1 -41 37 -86 39
-116 7 -36 -38 -29 -78 19 -122 109 -98 269 -116 442 -50 12 5 17 2 17 -12 0
-10 13 -39 29 -64 84 -130 189 -183 366 -182 l70 1 3 -35 c5 -69 62 -152 140
-201 143 -91 306 -73 412 46 109 123 197 401 206 655 10 271 -79 547 -243 755
-69 88 -238 247 -323 304 -172 115 -416 217 -605 254 -11 2 -30 6 -42 9 -59
13 -71 15 -114 20 -25 3 -56 8 -70 11 -28 6 -414 16 -420 10z"/>
<path d="M534 1929 c-24 -9 -34 -20 -72 -89 -135 -247 -379 -785 -441 -973
-25 -75 26 -131 93 -103 29 12 38 25 66 98 44 114 124 305 166 395 18 41 34
77 34 80 0 8 220 446 231 460 53 63 -4 160 -77 132z"/>
<path d="M3423 1210 c-49 -20 -57 -84 -15 -122 105 -98 406 -249 542 -273 18
-3 36 -8 40 -10 3 -2 17 -6 31 -9 13 -2 47 -9 75 -15 100 -20 192 -25 444 -24
527 1 537 2 559 50 16 35 14 49 -12 79 l-24 27 -239 -3 c-544 -6 -588 -4 -753
31 -181 40 -351 112 -500 214 -88 59 -114 69 -148 55z"/>
</g>
</svg>
